<?xml version="1.0" encoding="utf-8"?>
<!-- Generator: Adobe Illustrator 17.0.0, SVG Export Plug-In . SVG Version: 6.00 Build 0)  -->
<!DOCTYPE svg PUBLIC "-//W3C//DTD SVG 1.1//EN" "http://www.w3.org/Graphics/SVG/1.1/DTD/svg11.dtd">
<svg version="1.1" id="Layer_1" xmlns="http://www.w3.org/2000/svg" xmlns:xlink="http://www.w3.org/1999/xlink" x="0px" y="0px"
	 width="210.319px" height="200.269px" viewBox="0 0 210.319 200.269" enable-background="new 0 0 210.319 200.269"
	 xml:space="preserve">
<g>
	<g>
		<g>
			<path fill="#0076C6" d="M-3727.05-1245.652c11.401-6.273,24.66-8.957,37.618-7.864c14.636,1.282,28.721,7.606,39.52,17.553
				c10.988,9.955,18.542,23.456,21.743,37.902c15.626,2.676,30.081,11.134,40.14,23.378c12.235,14.825,18.009,34.736,15.419,53.82
				c-2.099,14.791-8.768,28.962-19.196,39.709c-10.291,10.79-24.368,17.966-39.21,19.592c-10.618,0.8-21.279,0.275-31.905,0.413
				c0-25.658,0.043-51.325-0.009-76.984c0.103-8.088-1.032-16.891-6.608-23.189c-5.404-6.204-13.991-8.226-21.898-8.321
				c-18.542-0.052-37.085,0.017-55.627-0.034c-0.017,3.648-0.009,7.305,0,10.953c14.542,0.009,29.074-0.052,43.616,0.026
				c7.572,0.112,15.712,2.022,21.081,7.718c5.541,5.808,7.142,14.18,7.107,21.95c0.009,31.836-0.026,63.681,0.095,95.526
				c-37.403-0.181-74.815-0.146-112.219-0.017c-0.034-9.293,0.06-18.585,0.009-27.87c-10.42-0.052-20.848,0.06-31.269-0.095
				c-14.662-1.23-28.412-9.224-37.352-20.814c-5.825-7.357-9.327-16.254-11.28-25.366c-1.755-12.666-0.112-25.934,5.989-37.274
				c7.494-14.55,21.76-25.314,37.825-28.489c2.59-11.306,8.57-21.769,17.166-29.591c8.467-7.305,19.102-12.132,30.288-13.061
				c6.445-0.577,12.898,0.344,19.153,1.884C-3750.428-1227.385-3740.008-1238.683-3727.05-1245.652z M-3729.864-1222.61
				c-9.792,8.054-16.297,19.558-19.455,31.742c-4.586-2.943-9.688-5.24-15.144-5.911c-13.363-1.876-27.465,4.208-35.416,15.092
				c-5.257,7.064-7.667,16.047-7.082,24.807c0.086,1.402,0.181,2.805,0.215,4.225c-10.196-0.172-21.27,0.404-29.84,6.608
				c-9.671,6.78-14.352,18.964-13.827,30.528c0.327,6.376,2.28,12.562,5.318,18.155c6.453,10.566,18.164,18.018,30.692,18.104
				c14.318,0.06,28.635,0.017,42.953,0.026c0.232,9.68,0.026,19.36,0.12,29.04c26.725,0.009,53.45,0.069,80.176-0.026
				c-0.172-25.994-0.009-51.988-0.086-77.982c0.138-7.365-6.419-14.197-13.862-13.956c-22.062-0.009-44.132,0.026-66.194-0.009
				c-0.112,14.671-0.034,29.358-0.043,44.037c-0.017,2.151-0.198,4.474-1.583,6.247c-2.461,3.605-8.097,4.285-11.418,1.514
				c-2.048-1.592-3.124-4.208-3.02-6.772c0-14.946,0.017-29.892,0-44.838c-0.034-5.593-0.017-11.186-0.034-16.77
				c8.587-0.034,17.175,0.06,25.762,0c0.052-8.424-0.121-16.839-0.086-25.262c0.663-0.086,1.979-0.267,2.642-0.353
				c3.631,0.499,7.314,0.172,10.971,0.241c7.339,0.052,14.688,0.017,22.027,0.017c15.583,0.009,31.156-0.017,46.739,0.009
				c11.452-0.31,21.993,7.271,26.983,17.312c1.712,4.036,2.951,8.346,2.822,12.778c0,24.927-0.017,49.854,0,74.781
				c5.515-0.026,11.048,0.25,16.546-0.258c5.627-0.534,10.979-2.469,16.125-4.732l-0.017-0.215
				c12.081-6.092,21.193-17.51,25.056-30.417l0.241,0.026c0.869-4.509,2.272-9.017,2.031-13.647
				c0.852-15.591-6.41-31.139-18.104-41.318c-9.912-8.553-23.447-11.349-36.233-10.833c-0.086-12.055-2.882-24.669-10.842-34.065
				c-8.94-11.134-22.337-18.758-36.637-19.945C-3705.126-1235.99-3719.315-1231.532-3729.864-1222.61z"/>
		</g>
		<path fill="#0076C6" d="M-3723.798-1124.468c2.676-0.929,5.584-0.465,8.364-0.568c3.141,0.103,6.333-0.31,9.43,0.361
			c4.56,1.359,3.992,9.422-0.886,9.835c-5.111,0.232-10.257,0.224-15.368,0.017
			C-3726.973-1115.158-3727.833-1122.523-3723.798-1124.468z"/>
		<path fill="#0076C6" d="M-3757.32-1070.94c1.557-0.525,3.235-0.396,4.853-0.439c14.369,0.095,28.739-0.06,43.108,0.069
			c4.044-0.215,6.479,5.137,3.941,8.183c-1.652,2.469-4.922,2.005-7.486,2.099c-14.344-0.164-28.704,0.189-43.039-0.172
			C-3760.934-1061.492-3761.906-1069.185-3757.32-1070.94z"/>
	</g>
	<g>
		<path fill="#0177C6" d="M-3739.372-1132.307c3.089-1.953,7.615,0.439,7.77,4.078c-0.129,2.556-1.781,4.672-2.934,6.849
			c-3.674,6.35-7.288,12.726-10.876,19.119c-1.058,1.764-2.246,3.829-4.431,4.302c-2.891,0.835-6.247-1.428-6.341-4.474
			c-0.077-1.893,0.964-3.562,1.824-5.163c4.018-6.961,7.976-13.948,11.926-20.952
			C-3741.6-1129.923-3740.809-1131.463-3739.372-1132.307z"/>
	</g>
	<g>
		<path fill="#0176C6" d="M-3734.002-1108.653c9.017-0.422,18.095-0.241,27.121-0.12c5.309,0.473,5.3,9.611-0.017,10.093
			c-5.989,0.318-12.003,0.017-18,0.12c-3.141-0.095-6.324,0.284-9.43-0.301C-3738.615-1100.264-3738.494-1107.621-3734.002-1108.653
			z"/>
	</g>
	<g>
		<path fill="#0077C7" d="M-3756.563-1090.059c15.101-0.508,30.262-0.026,45.388-0.232c1.988,0.112,4.182-0.293,6.006,0.723
			c3.278,1.936,3.003,7.512-0.439,9.121c-1.79,0.602-3.717,0.447-5.567,0.508c-14.653-0.112-29.315,0.086-43.96-0.095
			C-3760.736-1079.605-3761.812-1088.794-3756.563-1090.059z"/>
	</g>
</g>
<text transform="matrix(1 0 0 1 -4050.6846 -935.9468)" fill="#A7A9AC" font-family="'COCOGOOSE-DemiBold'" font-size="63.4349" letter-spacing="7">Mediadrrive.io</text>
<text transform="matrix(1 0 0 1 -2625.7568 -1061.4819)" fill="#A7A9AC" font-family="'COCOGOOSE-DemiBold'" font-size="63.4349">Mediadrrive.io</text>
<g>
	<path fill="#3A3A3C" d="M-2775.981-1114.798c13.28-11.05,35.35-8.56,45.92,5.09c-1.25,2.41-2.54,4.78-3.89,7.13
		c-7.23-12.37-25.69-15.89-36.87-6.92c-7.11,5.44-10.91,14.46-10.63,23.33c-2.38-0.87-4.75-1.75-7.13-2.59
		C-2788.271-1098.698-2783.771-1108.528-2775.981-1114.798z"/>
	<path fill="#32689B" d="M-2779.601-1134.528c8-4.63,17.44-6.33,26.59-5.48c12.3,0.75,24.83,6.22,32.24,16.32
		c-0.92,2.45-2.01,5.55-4.12,7c-4.12-4.96-8.78-9.68-14.86-12.18c-12.22-5.21-27.39-5.04-38.46,2.86
		c-11.39,7.72-17.78,21.39-18.02,34.97c-2.54-0.98-5.07-1.99-7.6-2.97C-2802.991-1110.348-2794.091-1126.488-2779.601-1134.528z"/>
	<path fill="#32689B" d="M-2722.061-1109.748c2.32-2.97,3.27-8.89,8.19-7.75c9.47,0.07,18.27,7.17,20.1,16.49
		c-2.63-0.04-5.27-0.06-7.89-0.04c-1.69-2.8-3.51-5.77-6.63-7.14C-2712.521-1110.528-2717.461-1109.598-2722.061-1109.748z"/>
	<path fill="#32689B" d="M-2725.511-1089.148c-3.24-4.06-0.46-10.81,4.75-11.28c3.07-0.74,5.23,1.86,7.79,2.9
		c8.04,0.56,16.38-1.08,24.15,1.65c7.92,2.69,14.23,9.76,15.74,18.02c0.72,5.22,0.28,10.78-2.42,15.41
		c-4.13,7.63-12.59,12.73-21.28,12.7c-31-0.03-62.01,0-93.01-0.02c-8.68-0.21-16.89-5.57-20.86-13.24
		c-4.17-8.29-2.73-18.74,3.11-25.88c2.85,0.39,5.54,1.45,8.23,2.42c-3.91,3.86-7.21,9.17-6.24,14.87
		c0.94,7.01,6.84,12.9,13.77,14.07c2.63,0.52,5.32,0.36,7.99,0.38c28.96-0.05,57.93,0.05,86.89-0.04
		c8.33-0.15,16.41-6.96,16.64-15.54c0.7-9.1-7.68-17.16-16.6-17.09c-5.54,0.02-11.08-0.09-16.62,0.11
		C-2716.061-1085.598-2722.711-1084.998-2725.511-1089.148z"/>
	<path fill="#32689B" d="M-2700.571-1073.718c0.08-4.18-0.2-8.37,0.24-12.53c2.48,0.07,4.97,0.11,7.47,0.12
		c-0.01,6.77,0.01,13.55,0,20.32c-11.52,0.07-23.04-0.16-34.56,0.12c-2.67,3.5-8.33,4.02-11.23,0.53
		c-3.88-3.89-0.94-11.76,4.71-11.66c2.92-0.65,4.91,1.61,7.11,3.02C-2718.081-1073.558-2709.321-1073.768-2700.571-1073.718z"/>
</g>
<circle fill="#32689B" cx="-2733.375" cy="-1069.983" r="7.833"/>
<circle fill="#32689B" cx="-2719.709" cy="-1093.483" r="7.833"/>
<path fill="#32689B" d="M-2764.411-1101.097c0,8.833,0,16.445,0,21.177c0,4.732,3.086,4.115,6.231,1.893
	c3.628-2.563,11.239-6.507,14.197-8.518c2.686-1.826,7.108-3.271-0.67-8.045c-6.435-3.95-10.73-6.544-12.58-7.572
	C-2761.493-1104.528-2764.411-1104.765-2764.411-1101.097z"/>
<g>
	<text transform="matrix(1 0 0 1 -131.1964 290.744)" fill="#359AD2" font-family="'Arboria-Bold'" font-size="63.4349">Mediadrive.io</text>
</g>
<g>
	<path fill="#25AAE1" d="M86.096,11.939c18.86-6.751,40.974-4.054,57.346,7.638c18.843,12.945,29.908,37.024,25.628,59.747
		c-0.835,5.324-2.297,10.544-4.002,15.659c-3.897,12.144-13.293,21.366-23.053,29.091c2.766-9.83,2.523-20.235-1.357-29.717
		c4.785-8.299,8.195-17.816,6.838-27.542c-1.479-14.893-11.97-28.412-26.046-33.475c-15.989-6.264-35.632-0.696-45.898,13.066
		c-4.645,5.794-6.907,12.979-8.63,20.095c-7.586,1.166-15.085,3.08-22.218,5.916C43.522,46.076,61.199,20.447,86.096,11.939z"/>
	<path fill="#4ABEA0" d="M44.705,72.417c7.133-2.836,14.632-4.75,22.218-5.916c10.457-0.957,20.861,1.444,30.604,5.098
		c-9.952,2.888-19.017,8.456-25.245,16.859c-7.029,0.818-14.25,1.862-20.426,5.602c-14.771,7.986-23.332,26.046-19.887,42.54
		c2.61,14.406,13.762,26.829,27.786,31.004c9.256,3.027,19.295,1.827,28.308-1.409c4.628,6.42,10.561,11.848,17.242,16.076
		c-16.303,10.526-37.564,12.492-55.711,5.846c-15.346-5.637-28.273-17.555-35.076-32.431c-10.491-22.062-6.472-49.934,9.795-68.151
		C29.986,81.204,36.858,75.793,44.705,72.417z"/>
	<path fill="#F7CF25" d="M169.071,79.325c0.783-1.775,2.297-3.027,3.619-4.384c6.942,6.594,14.911,12.405,19.661,20.983
		c15.433,24.289,11.187,58.825-9.969,78.416c-20.026,19.73-53.414,23.053-77.076,7.934c-6.681-4.228-12.614-9.656-17.242-16.076
		c-6.037-8.317-9.604-18.077-11.535-28.081c7.638,6.994,17.346,11.309,27.733,11.935c9.221,14.319,27.438,22.601,44.175,18.042
		c17.921-4.106,31.526-21.748,30.709-40.156c-0.017-11.744-6.246-22.462-14.615-30.309c0.122-0.661,0.4-1.983,0.539-2.645
		C166.774,89.868,168.236,84.649,169.071,79.325z"/>
</g>
<g>
	<path fill="#FFFFFF" d="M127.294,92.468c-3.254,0-5.902-2.647-5.902-5.902l3.747-19.772l21.909,21.897L127.294,92.468z"/>
	<path fill="#32689B" d="M127.294,89.357h16.656l-19.448-19.448v16.657C124.503,88.107,125.752,89.357,127.294,89.357z"/>
	<path fill="#FFFFFF" d="M127.289,88.716c-1.184,0-2.147-0.963-2.147-2.147V66.794h-45.42c-3.833,0-6.951,3.126-6.951,6.968v71.351
		c0,3.833,3.118,6.951,6.951,6.951h60.39c3.833,0,6.951-3.118,6.951-6.951V88.716H127.289z"/>
	<path fill="#32689B" d="M127.289,91.826c-2.901,0-5.258-2.357-5.258-5.258V69.905H79.722c-2.126,0-3.84,1.73-3.84,3.857v71.351
		c0,2.11,1.714,3.84,3.84,3.84h60.39c2.11,0,3.84-1.73,3.84-3.84V91.826H127.289z M83.075,75.188h33.35v4.296h-33.35V75.188z
		 M83.075,85.061h25.933v4.296H83.075V85.061z M109.917,139.295c-11.109,0-20.158-9.032-20.158-20.141s9.049-20.141,20.158-20.141
		s20.141,9.032,20.141,20.141S121.026,139.295,109.917,139.295z"/>
	<path fill="#FFFFFF" d="M109.913,139.94c-11.461,0-20.786-9.325-20.786-20.786s9.324-20.786,20.786-20.786
		s20.786,9.324,20.786,20.786S121.374,139.94,109.913,139.94z M106.428,124.448l8.055-4.538l-8.055-4.543V124.448z"/>
	<path fill="#32689B" d="M109.913,101.479c-9.762,0-17.675,7.913-17.675,17.675s7.913,17.675,17.675,17.675
		c9.762,0,17.675-7.914,17.675-17.675C127.588,109.393,119.675,101.479,109.913,101.479z M103.317,129.771v-19.729l17.5,9.87
		L103.317,129.771z"/>
</g>
</svg>
