<svg xmlns="http://www.w3.org/2000/svg" viewBox="0 0 140.51 133.87"><defs><style>.cls-1{fill:#27a9e0;}.cls-2{fill:#49be9f;}.cls-3{fill:#f7cf29;}.cls-4{fill:#2e6b9e;}</style></defs><title>Asset 2</title><g id="Layer_2" data-name="Layer 2"><g id="Layer_1-2" data-name="Layer 1"><path class="cls-1" d="M26.18,46.62s5.58-2.42,16.27-4.18c0,0,1.42-10.16,7.31-16.11,0,0,9.23-12.6,27.78-9.38S100.76,38,101,42.58s.67,10.81-4.87,20.11c.65,2.09,4,9.36,1.07,21.4,1.07-.72,11.32-7.93,15.91-19.14s5.9-26,1.13-36.06A43.87,43.87,0,0,0,91.32,4.46c-17.64-7.81-31.65-3.82-40,.3,0,0-12.76,6.1-19.13,18S25.74,42.75,26.18,46.62Z"/><path class="cls-2" d="M64.28,46.13s-8.67-4.23-21.83-3.69c0,0-9.68-.23-21.88,7.18A47.05,47.05,0,0,0,1.51,75.5S-3.6,93.42,5,109.49a46.13,46.13,0,0,0,29.47,23.16c2.16.34,15.27,3.51,28.24-2a28.66,28.66,0,0,0,7.36-3.78,50.73,50.73,0,0,1-12.43-11.76c-1.62.54-16.82,6.49-29.39-3.51S13,87.75,19.89,73.82s24.41-15.52,26-15.36C47,57.32,51.54,50.16,64.28,46.13Z"/><path class="cls-3" d="M49.52,94.93s8,7.86,19.84,8.35c2,2.76,15.37,21.57,38.72,11,1.87-1.18,18.22-9.75,15.66-30.63A31,31,0,0,0,113.13,65a59.29,59.29,0,0,0,3.62-13.44l2.56-2.86s8.48,7.24,11.43,10.94,13.85,19.35,8.14,40.15-21,30.1-34.36,32.91-25.68-.53-31.7-4.19A45.71,45.71,0,0,1,55,111S50.42,102.73,49.52,94.93Z"/><path class="cls-4" d="M57.3,58.56v31.6s.09,5.87,6.39,2.42C66,91.11,87.86,78.16,88.12,77.73s4.75-2.07.17-6S65.33,57.27,64,56.92C64,56.92,57.76,53.74,57.3,58.56Z"/></g></g></svg>