<svg xmlns="http://www.w3.org/2000/svg" viewBox="0 0 450.77 92.4"><defs><style>.cls-1{fill:#27a9e0;}.cls-2{fill:#49be9f;}.cls-3{fill:#f7cf29;}.cls-4{fill:#2e6b9e;}.cls-5{font-size:43.52px;fill:#2b9ad3;font-family:BrandonText-Bold, Brandon Text;font-weight:700;}</style></defs><title>Asset 3</title><g id="Layer_2" data-name="Layer 2"><g id="Layer_1-2" data-name="Layer 1"><path class="cls-1" d="M18.07,32.18A52.51,52.51,0,0,1,29.3,29.29s1-7,5.05-11.11c0,0,6.37-8.7,19.17-6.48s16,14.55,16.21,17.69.46,7.46-3.37,13.88A23.19,23.19,0,0,1,67.1,58c.75-.49,7.82-5.47,11-13.21s4.07-18,.78-24.89A30.28,30.28,0,0,0,63,3.08c-12.18-5.39-21.84-2.64-27.6.2,0,0-8.81,4.22-13.21,12.42S17.77,29.51,18.07,32.18Z"/><path class="cls-2" d="M44.37,31.84A34,34,0,0,0,29.3,29.29s-6.68-.16-15.1,5A32.47,32.47,0,0,0,1,52.11s-3.52,12.38,2.4,23.46a31.87,31.87,0,0,0,20.34,16c1.49.23,10.54,2.42,19.49-1.35a19.93,19.93,0,0,0,5.08-2.61,35,35,0,0,1-8.58-8.12c-1.12.38-11.61,4.48-20.28-2.42S9,60.57,13.73,51s16.85-10.71,18-10.6C32.43,39.57,35.57,34.63,44.37,31.84Z"/><path class="cls-3" d="M34.18,65.53a22.7,22.7,0,0,0,13.7,5.76c1.36,1.9,10.6,14.89,26.72,7.61,1.29-.81,12.58-6.73,10.81-21.14a21.42,21.42,0,0,0-7.32-12.93,41.45,41.45,0,0,0,2.5-9.28l1.77-2a87.86,87.86,0,0,1,7.88,7.55,31.8,31.8,0,0,1,5.62,27.72c-4,14.35-14.52,20.77-23.72,22.71s-17.72-.36-21.87-2.89A31.5,31.5,0,0,1,38,76.58S34.8,70.91,34.18,65.53Z"/><path class="cls-4" d="M39.55,40.42V62.23s.06,4.05,4.41,1.67c1.61-1,16.69-9.95,16.87-10.25s3.27-1.43.11-4.11-15.85-10-16.74-10.25C44.2,39.29,39.87,37.1,39.55,40.42Z"/><text class="cls-5" transform="translate(112.14 59.22)">MEDIADRIVE.IO</text></g></g></svg>