<?xml version="1.0" encoding="utf-8"?>
<!-- Generator: Adobe Illustrator 17.0.0, SVG Export Plug-In . SVG Version: 6.00 Build 0)  -->
<!DOCTYPE svg PUBLIC "-//W3C//DTD SVG 1.1//EN" "http://www.w3.org/Graphics/SVG/1.1/DTD/svg11.dtd">
<svg version="1.1" id="Layer_1" xmlns="http://www.w3.org/2000/svg" xmlns:xlink="http://www.w3.org/1999/xlink" x="0px" y="0px"
	 width="487px" height="320.251px" viewBox="0 0 487 320.251" enable-background="new 0 0 487 320.251" xml:space="preserve">
<g>
	<g>
		<path fill="#0177C6" d="M-3600.402-1140.607c3.089-1.953,7.615,0.439,7.77,4.078c-0.129,2.556-1.781,4.672-2.934,6.849
			c-3.674,6.35-7.288,12.726-10.876,19.119c-1.058,1.764-2.246,3.829-4.431,4.302c-2.891,0.835-6.247-1.428-6.342-4.474
			c-0.077-1.893,0.964-3.562,1.824-5.163c4.018-6.961,7.976-13.948,11.926-20.952
			C-3602.63-1138.224-3601.839-1139.764-3600.402-1140.607z"/>
	</g>
	<g>
		<path fill="#0176C6" d="M-3595.033-1116.954c9.018-0.422,18.095-0.241,27.121-0.12c5.309,0.473,5.3,9.611-0.017,10.093
			c-5.989,0.318-12.003,0.017-18,0.12c-3.141-0.095-6.324,0.284-9.43-0.301C-3599.645-1108.565-3599.524-1115.921-3595.033-1116.954
			z"/>
	</g>
	<g>
		<path fill="#0077C7" d="M-3617.593-1098.36c15.101-0.508,30.261-0.026,45.388-0.232c1.988,0.112,4.182-0.292,6.006,0.723
			c3.278,1.936,3.003,7.512-0.439,9.121c-1.79,0.602-3.717,0.447-5.567,0.508c-14.653-0.112-29.315,0.086-43.96-0.095
			C-3621.767-1087.906-3622.842-1097.095-3617.593-1098.36z"/>
	</g>
</g>
<text transform="matrix(1 0 0 1 -3911.7148 -944.2476)" fill="#A7A9AC" font-family="'COCOGOOSE-DemiBold'" font-size="63.4349" letter-spacing="7">Mediadrrive.io</text>
<text transform="matrix(1 0 0 1 -2486.7871 -1069.7827)" fill="#A7A9AC" font-family="'COCOGOOSE-DemiBold'" font-size="63.4349">Mediadrrive.io</text>

<g>
	<text transform="matrix(1 0 0 1 7.7734 282.4432)" fill="#359AD2" font-family="'Arboria-Bold'" font-size="63.4349">Mediadrive.io</text>
</g>
</svg>
